<svg fill="none" overflow="visible" xmlns="http://www.w3.org/2000/svg"><svg xmlns="http://www.w3.org/2000/svg" fill="none" overflow="visible">
  <style>
    @keyframes move-654957394263661303 {0.0% {transform:translate(47%, 75%) rotate(2deg) scaleX(1);}5.0% {transform:translate(70%, 35%) rotate(2deg) scaleX(1);}5.01% {transform:translate(75%, 35%) rotate(2deg) scaleX(-1);}10.0% {transform:translate(66%, 44%) rotate(-1deg) scaleX(-1);}12.0% {transform:translate(40%, 25%) rotate(0deg) scaleX(-1);}15.0% {transform:translate(38%, 53%) rotate(-1deg) scaleX(-1);}15.01% {transform:translate(33%, 53%) rotate(-1deg) scaleX(1);}20.0% {transform:translate(72%, 48%) rotate(2deg) scaleX(1);}24.0% {transform:translate(77%, 49%) rotate(-2deg) scaleX(1);}24.01% {transform:translate(82%, 49%) rotate(-2deg) scaleX(-1);}27.0% {transform:translate(44%, 59%) rotate(0deg) scaleX(-1);}30.0% {transform:translate(26%, 28%) rotate(1deg) scaleX(-1);}30.01% {transform:translate(21%, 28%) rotate(1deg) scaleX(1);}34.0% {transform:translate(64%, 52%) rotate(-2deg) scaleX(1);}36.0% {transform:translate(65%, 60%) rotate(-1deg) scaleX(1);}36.01% {transform:translate(70%, 60%) rotate(-1deg) scaleX(-1);}41.0% {transform:translate(43%, 78%) rotate(0deg) scaleX(-1);}41.01% {transform:translate(38%, 78%) rotate(0deg) scaleX(1);}43.0% {transform:translate(50%, 72%) rotate(2deg) scaleX(1);}43.01% {transform:translate(55%, 72%) rotate(2deg) scaleX(-1);}48.0% {transform:translate(20%, 77%) rotate(0deg) scaleX(-1);}48.01% {transform:translate(15%, 77%) rotate(0deg) scaleX(1);}50.0% {transform:translate(48%, 66%) rotate(2deg) scaleX(1);}52.0% {transform:translate(49%, 29%) rotate(1deg) scaleX(1);}55.0% {transform:translate(73%, 52%) rotate(-2deg) scaleX(1);}55.01% {transform:translate(78%, 52%) rotate(-2deg) scaleX(-1);}58.0% {transform:translate(49%, 74%) rotate(0deg) scaleX(-1);}58.01% {transform:translate(44%, 74%) rotate(0deg) scaleX(1);}63.0% {transform:translate(55%, 62%) rotate(2deg) scaleX(1);}63.01% {transform:translate(60%, 62%) rotate(2deg) scaleX(-1);}66.0% {transform:translate(24%, 68%) rotate(0deg) scaleX(-1);}66.01% {transform:translate(19%, 68%) rotate(0deg) scaleX(1);}68.0% {transform:translate(29%, 68%) rotate(3deg) scaleX(1);}70.0% {transform:translate(43%, 78%) rotate(-2deg) scaleX(1);}74.0% {transform:translate(51%, 41%) rotate(1deg) scaleX(1);}74.01% {transform:translate(56%, 41%) rotate(1deg) scaleX(-1);}76.0% {transform:translate(48%, 24%) rotate(1deg) scaleX(-1);}80.0% {transform:translate(46%, 38%) rotate(-1deg) scaleX(-1);}84.0% {transform:translate(24%, 29%) rotate(0deg) scaleX(-1);}84.01% {transform:translate(19%, 29%) rotate(0deg) scaleX(1);}89.0% {transform:translate(43%, 51%) rotate(-2deg) scaleX(1);}94.0% {transform:translate(69%, 49%) rotate(3deg) scaleX(1);}94.01% {transform:translate(74%, 49%) rotate(3deg) scaleX(-1);}97.0% {transform:translate(32%, 62%) rotate(0deg) scaleX(-1);}97.01% {transform:translate(27%, 62%) rotate(0deg) scaleX(1);}100.0% {transform:translate(45%, 42%) rotate(2deg) scaleX(1);}}#rabbit-654957394263661303 {animation-name: move-654957394263661303;animation-duration: 180s;animation-iteration-count: 1;animation-fill-mode: forwards;}@keyframes reverse-flip-654957394263661303 {0.0% {transform-origin: 10.0px 0px;transform: scaleX(1);}5.0% {transform-origin: 10.0px 0px;transform: scaleX(1);}5.01% {transform-origin: 10.0px 0px;transform: scaleX(-1);}10.0% {transform-origin: 10.0px 0px;transform: scaleX(-1);}12.0% {transform-origin: 10.0px 0px;transform: scaleX(-1);}15.0% {transform-origin: 10.0px 0px;transform: scaleX(-1);}15.01% {transform-origin: 10.0px 0px;transform: scaleX(1);}20.0% {transform-origin: 10.0px 0px;transform: scaleX(1);}24.0% {transform-origin: 10.0px 0px;transform: scaleX(1);}24.01% {transform-origin: 10.0px 0px;transform: scaleX(-1);}27.0% {transform-origin: 10.0px 0px;transform: scaleX(-1);}30.0% {transform-origin: 10.0px 0px;transform: scaleX(-1);}30.01% {transform-origin: 10.0px 0px;transform: scaleX(1);}34.0% {transform-origin: 10.0px 0px;transform: scaleX(1);}36.0% {transform-origin: 10.0px 0px;transform: scaleX(1);}36.01% {transform-origin: 10.0px 0px;transform: scaleX(-1);}41.0% {transform-origin: 10.0px 0px;transform: scaleX(-1);}41.01% {transform-origin: 10.0px 0px;transform: scaleX(1);}43.0% {transform-origin: 10.0px 0px;transform: scaleX(1);}43.01% {transform-origin: 10.0px 0px;transform: scaleX(-1);}48.0% {transform-origin: 10.0px 0px;transform: scaleX(-1);}48.01% {transform-origin: 10.0px 0px;transform: scaleX(1);}50.0% {transform-origin: 10.0px 0px;transform: scaleX(1);}52.0% {transform-origin: 10.0px 0px;transform: scaleX(1);}55.0% {transform-origin: 10.0px 0px;transform: scaleX(1);}55.01% {transform-origin: 10.0px 0px;transform: scaleX(-1);}58.0% {transform-origin: 10.0px 0px;transform: scaleX(-1);}58.01% {transform-origin: 10.0px 0px;transform: scaleX(1);}63.0% {transform-origin: 10.0px 0px;transform: scaleX(1);}63.01% {transform-origin: 10.0px 0px;transform: scaleX(-1);}66.0% {transform-origin: 10.0px 0px;transform: scaleX(-1);}66.01% {transform-origin: 10.0px 0px;transform: scaleX(1);}68.0% {transform-origin: 10.0px 0px;transform: scaleX(1);}70.0% {transform-origin: 10.0px 0px;transform: scaleX(1);}74.0% {transform-origin: 10.0px 0px;transform: scaleX(1);}74.01% {transform-origin: 10.0px 0px;transform: scaleX(-1);}76.0% {transform-origin: 10.0px 0px;transform: scaleX(-1);}80.0% {transform-origin: 10.0px 0px;transform: scaleX(-1);}84.0% {transform-origin: 10.0px 0px;transform: scaleX(-1);}84.01% {transform-origin: 10.0px 0px;transform: scaleX(1);}89.0% {transform-origin: 10.0px 0px;transform: scaleX(1);}94.0% {transform-origin: 10.0px 0px;transform: scaleX(1);}94.01% {transform-origin: 10.0px 0px;transform: scaleX(-1);}97.0% {transform-origin: 10.0px 0px;transform: scaleX(-1);}97.01% {transform-origin: 10.0px 0px;transform: scaleX(1);}100.0% {transform-origin: 10.0px 0px;transform: scaleX(1);}}#contributions-wrap-654957394263661303, #level-tag-wrap-654957394263661303, #level-wrap-654957394263661303, #username-tag-wrap-654957394263661303, #username-wrap-654957394263661303 {animation-name: reverse-flip-654957394263661303;animation-duration: 180s;animation-iteration-count: 1;animation-fill-mode: forwards;}

    @keyframes rabbit-head-654957394263661303-move {
    0% {
    transform: translate(0, -1px);
    }
    50% {
    transform: translate(0, -2px);
    }
    100% {
    transform: translate(0, -1px);
    }
    }

    @keyframes rabbit-obj-654957394263661303-move {
    0% {
    transform: translate(0, 0px);
    }
    15% {
    transform: translate(0, -5px);
    }
    30% {
    transform: translate(0, 0px);
    }
    100% {
    transform: translate(0, 0px);
    }
    }

    @keyframes rabbit-654957394263661303-shadow-move {
    0% {
    transform: translate(-2px, 9px) scaleX(1);
    }
    15% {
    transform: translate(-2px, 9px) scaleX(1.2);
    }
    30% {
    transform: translate(-2px, 9px) scaleX(1);
    }
    100% {
    transform: translate(-2px, 9px) scaleX(1);
    }
    }

    #rabbit-head-654957394263661303 {
    animation-name: rabbit-head-654957394263661303-move;
    animation-duration:1s;
    animation-iteration-count:infinite;
    animation-timing-function: ease-in-out;
    }

    #rabbit-shadow-654957394263661303 {
    animation-name: rabbit-654957394263661303-shadow-move;
    animation-duration:2s;
    animation-iteration-count:infinite;
    animation-timing-function: ease-in-out;
    }

    #rabbit-obj-654957394263661303 {
    animation-name: rabbit-obj-654957394263661303-move;
    animation-duration:2s;
    animation-iteration-count:infinite;
    animation-timing-function: ease-in-out;
    }
  </style>

  <g id="rabbit-654957394263661303" transform="translate(100, 100)">
    <g id="id"> 654957394263661303 </g>
    <g id="contributions-wrap-654957394263661303">
      <g id="contributions" transform="translate(-28.5, -51)"
        style="display:default;">
        <g id="contribution-tag" transform="translate(-3, -1)">
          <rect x="3" width="77" height="19" fill="white"/>
          <rect x="1" y="1.26669" width="81" height="16.4667" fill="white"/>
          <rect y="2.53333" width="83" height="13.9333" fill="white"/>
        </g>
        <path
          d="M1 2.75H4V3.5H4.75V4.25H3.25V3.5H1.75V7.25H3.25V6.5H4.75V7.25H4V8H1V7.25H0.25V3.5H1V2.75ZM7 2.75H10V3.5H10.75V7.25H10V8H7V7.25H6.25V3.5H7V2.75ZM9.25 7.25V3.5H7.75V7.25H9.25ZM16 3.5H16.75V8H15.25V3.5H13.75V8H12.25V2.75H16V3.5ZM19 1.25H20.5V2.75H22.75V3.5H20.5V7.25H22.75V8H19.75V7.25H19V3.5H18.25V2.75H19V1.25ZM24.25 2.75H25.75V4.25H26.5V5H25.75V8H24.25V2.75ZM28.75 2.75V4.25H26.5V3.5H27.25V2.75H28.75ZM33.25 2H31.75V0.5H33.25V2ZM33.25 7.25H34.75V8H30.25V7.25H31.75V3.5H30.25V2.75H33.25V7.25ZM40 3.5H40.75V7.25H40V8H36.25V1.25H37.75V2.75H40V3.5ZM39.25 7.25V3.5H37.75V7.25H39.25ZM45.25 2.75H46.75V8H43V7.25H42.25V2.75H43.75V7.25H45.25V2.75ZM49 1.25H50.5V2.75H52.75V3.5H50.5V7.25H52.75V8H49.75V7.25H49V3.5H48.25V2.75H49V1.25ZM57.25 2H55.75V0.5H57.25V2ZM57.25 7.25H58.75V8H54.25V7.25H55.75V3.5H54.25V2.75H57.25V7.25ZM61 2.75H64V3.5H64.75V7.25H64V8H61V7.25H60.25V3.5H61V2.75ZM63.25 7.25V3.5H61.75V7.25H63.25ZM70 3.5H70.75V8H69.25V3.5H67.75V8H66.25V2.75H70V3.5ZM73 5H72.25V3.5H73V2.75H76.75V3.5H73.75V5H76V5.75H76.75V7.25H76V8H72.25V7.25H75.25V5.75H73V5Z"
          fill="black"/>
        <svg width="600" height="300" viewBox="0 0 200 100" fill="none" overflow="visible"
          xmlns="http://www.w3.org/2000/svg">
          <g id="contribution" transform="translate(8.8, 3.5)">
            <g id="level0" transform="translate(0.0, -1.0)"><path d="M0.75 2.75H1.25V2H0.75V1.75H1.25V1H0.75V1.5H0.25V1H0.5V0.75H1.5V1H1.75V1.75H1.5V2H1.75V2.75H1.5V3H0.5V2.75H0.25V2.25H0.75V2.75Z" fill="black"/>
</g><g id="level1" transform="translate(2.0, -1.0)"><path d="M0.5 0.75H1.5V1H1.75V2.75H1.5V3H0.5V2.75H0.25V1H0.5V0.75ZM1 2V2.5H0.75V2.75H1.25V1.75H1V1.25H1.25V1H0.75V2H1Z" fill="black"/>
</g><g id="level2" transform="translate(4.0, -1.0)"><path d="M1 0.75H1.5V3H1V1.5H0.25V1.25H0.75V1H1V0.75Z" fill="black"/>
</g><g id="level3" transform="translate(6.0, -1.0)"><path d="M0.5 1.25H0.75V0.75H1.5V1H1.25V1.25H1V1.5H1.5V1.75H1.75V2.75H1.5V3H0.5V2.75H0.25V1.5H0.5V1.25ZM1.25 2.75V1.75H0.75V2.75H1.25Z" fill="black"/>
</g>
          </g>
        </svg>
      </g>
    </g>

    <g id="username-tag-wrap-654957394263661303">
      <g id="username-tag" transform="translate(-28.5, -39.5)" style="display:none;">
        <rect x="3" width="77" height="9" fill="white"/>
        <rect x="1" y="0.600006" width="81" height="7.8" fill="white"/>
        <rect y="1.20001" width="83" height="6.6" fill="white"/>
      </g>
    </g>

    <g id="username-wrap-654957394263661303">
      <g id="username" transform="translate(-33, -39)" style="display:none;">
        <svg width="600" height="300" viewBox="0 0 2400 1200" fill="none" overflow="visible"
          xmlns="http://www.w3.org/2000/svg">
          <g id="level0" transform="translate(14.0, -1.0)"><g transform="translate(0, 7)">
<path d="M6.75 23H0.25V0.25H19.75V3.5H23V23H16.5V3.5H13.25V19.75H10V3.5H6.75V23Z" fill="black"/>
</g>
</g><g id="level1" transform="translate(39.0, -1.0)"><g transform="translate(0, 7)">
<path d="M13.25 0.25H19.75V23H3.5V19.75H0.25V0.25H6.75V19.75H13.25V0.25Z" fill="black"/>
</g>
</g><g id="level2" transform="translate(64.0, -1.0)"><svg width="20" height="30" viewBox="0 0 20 30" fill="none" xmlns="http://www.w3.org/2000/svg">
<path d="M6.75 7.25H16.5V10.5H19.75V30H13.25V10.5H6.75V30H0.25V0.75H6.75V7.25Z" fill="black"/>
</svg>
</g><g id="level3" transform="translate(89.0, -1.0)"><g transform="translate(0, 7)">
<path d="M13.25 3.5H3.5V0.25H16.5V3.5H19.75V23H3.5V19.75H0.25V13.25H3.5V10H13.25V3.5ZM13.25 19.75V13.25H6.75V19.75H13.25Z" fill="black"/>
</g>
</g><g id="level4" transform="translate(114.0, -1.0)"><g transform="translate(0, 7)">
<path d="M6.75 23H0.25V0.25H19.75V3.5H23V23H16.5V3.5H13.25V19.75H10V3.5H6.75V23Z" fill="black"/>
</g>
</g><g id="level5" transform="translate(139.0, -1.0)"><g transform="translate(0, 7)">
<path d="M6.75 23H0.25V0.25H19.75V3.5H23V23H16.5V3.5H13.25V19.75H10V3.5H6.75V23Z" fill="black"/>
</g>
</g><g id="level6" transform="translate(164.0, -1.0)"><g transform="translate(0, 7)">
<path d="M13.25 3.5H3.5V0.25H16.5V3.5H19.75V23H3.5V19.75H0.25V13.25H3.5V10H13.25V3.5ZM13.25 19.75V13.25H6.75V19.75H13.25Z" fill="black"/>
</g>
</g><g id="level7" transform="translate(189.0, -1.0)"><svg width="20" height="30" viewBox="0 0 20 30" fill="none" xmlns="http://www.w3.org/2000/svg">
<path d="M13.25 0.75H19.75V30H3.5V26.75H0.25V10.5H3.5V7.25H13.25V0.75ZM13.25 26.75V10.5H6.75V26.75H13.25Z" fill="black"/>
</svg>
</g><g id="level8" transform="translate(214.0, -1.0)"><svg width="20" height="4" y="12" viewBox="0 0 20 4" fill="none" xmlns="http://www.w3.org/2000/svg">
  <path d="M19.75 4H0.25V0.75H19.75V4Z" fill="black"/>
</svg>
</g><g id="level9" transform="translate(239.0, -1.0)"><svg width="20" height="30" viewBox="0 0 20 30" fill="none" xmlns="http://www.w3.org/2000/svg">
<path d="M3.5 4H6.75V0.75H19.75V4H10V13.75H19.75V17H10V30H3.5V17H0.25V13.75H3.5V4Z" fill="black"/>
</svg>
</g><g id="level10" transform="translate(264.0, -1.0)"><g transform="translate(0, -3)">
<path d="M13.25 7H6.75V0.5H13.25V7ZM13.25 29.75H19.75V33H0.25V29.75H6.75V13.5H0.25V10.25H13.25V29.75Z" fill="black"/>
</g>
</g><g id="level11" transform="translate(289.0, -1.0)"><g transform="translate(0, 7)">
<path d="M13.25 3.5H3.5V0.25H16.5V3.5H19.75V23H3.5V19.75H0.25V13.25H3.5V10H13.25V3.5ZM13.25 19.75V13.25H6.75V19.75H13.25Z" fill="black"/>
</g>
</g><g id="level12" transform="translate(314.0, -1.0)"><g transform="translate(0, 7)">
<path d="M10 6.75H13.25V3.5H0.25V0.25H19.75V6.75H16.5V10H13.25V13.25H10V16.5H6.75V19.75H19.75V23H0.25V16.5H3.5V13.25H6.75V10H10V6.75Z" fill="black"/>
</g>
</g>
        </svg>
      </g>
    </g>

    <g id="level-tag-wrap-654957394263661303">
      <g id="level-tag" transform="translate(-31.5, -31)" style="display:default;">
        <rect x="3" width="77" height="9" fill="white"/>
        <rect x="1" y="0.600006" width="81" height="7.8" fill="white"/>
        <rect y="1.20001" width="83" height="6.6" fill="white"/>
      </g>
    </g>

    <g id="level-wrap-654957394263661303" style="display:default;">
      <svg width="600" height="300" viewBox="0 0 200 100" fill="none" overflow="visible">
        <g id="level" transform="translate(-11, -9.8)">
          <g transform="translate(10, -0.05)">
            <path
              d="M0.21875 0.03125H0.65625V1.78125H1.53125V2H0.21875V0.03125ZM2.1875 1.5625H1.96875V0.46875H2.40625V1.5625H2.84375V0.46875H3.28125V1.5625H3.0625V1.78125H2.84375V2H2.40625V1.78125H2.1875V1.5625Z"
              fill="black"/>
          </g>
          <g id="level0" transform="translate(14.0, -1.0)"><path d="M0.5 0.75H1V2H0.75V2.25H1.25V1.25H1.75V2.25H2V2.5H1.75V3H1.25V2.5H0.25V2H0.5V0.75Z" fill="black"/>
</g><g id="level1" transform="translate(16.0, -1.0)"><path d="M1 1.75H1.25V1H0.75V1.5H0.25V1H0.5V0.75H1.5V1H1.75V1.75H1.5V2H1.25V2.25H1V2.5H0.75V2.75H1.75V3H0.25V2.5H0.5V2.25H0.75V2H1V1.75Z" fill="black"/>
</g>
        </g>
      </svg>
    </g>

    <svg width="600" height="300" viewBox="0 0 200 100" fill="none" overflow="visible">
      <g id="rabbit-shadow-654957394263661303" transform="translate(-2, 9)">
        <rect width="8" height="1" transform="matrix(-1 0 0 1 8 0.5)" fill="#2B4447"
          fill-opacity="0.1"/>
        <rect width="6.76923" height="0.25" transform="matrix(-1 0 0 1 7.38452 0.25)" fill="#2B4447"
          fill-opacity="0.1"/>
        <rect width="6.76923" height="0.25" transform="matrix(-1 0 0 1 7.38452 1.5)" fill="#2B4447"
          fill-opacity="0.1"/>
        <rect width="5.53846" height="0.25" transform="matrix(-1 0 0 1 6.76929 0)" fill="#2B4447"
          fill-opacity="0.1"/>
        <rect width="5.53846" height="0.25" transform="matrix(-1 0 0 1 6.76929 1.75)" fill="#2B4447"
          fill-opacity="0.1"/>
      </g>
      <g id="rabbit-obj-654957394263661303">
        <g id="rabbit-body-654957394263661303" transform="translate(-4, 5)">
          <rect x="4" width="6" height="4" fill="#FFF2F4"/>
          <rect x="2" y="1" width="8" height="3" fill="#FFF2F4"/>
          <rect x="1" y="2" width="8" height="2" fill="#FFF2F4"/>
          <rect x="2" y="3" width="8" height="2" fill="#FFF2F4"/>
          <rect y="2" width="8" height="1" fill="#FFF2F4"/>
          <rect x="1" y="3" width="1" height="1" fill="#FF6666" fill-opacity="0.1"/>
          <rect x="2" y="4" width="2" height="1" fill="#FF6666" fill-opacity="0.1"/>
          <rect x="6" y="3" width="1" height="2" fill="#FF6666" fill-opacity="0.1"/>
          <rect x="8" y="3" width="1" height="2" fill="#FF6666" fill-opacity="0.1"/>
        </g>
        <g id="rabbit-head-654957394263661303" transform="translate(0, -10)">
          <rect x="1" y="3" width="5" height="4" fill="#FFF2F4"/>
          <rect y="4" width="7" height="3" fill="#FFF2F4"/>
          <rect x="1" y="4" width="5" height="4" fill="#FFF2F4"/>
          <rect y="2" width="3" height="5" fill="#FFF2F4"/>
          <rect x="4" y="2" width="3" height="5" fill="#FFF2F4"/>
          <rect width="2" height="3" fill="#FFF2F4"/>
          <rect x="5" width="2" height="3" fill="#FFF2F4"/>
          <rect x="1" y="1" width="1" height="2" fill="#FBB3BE"/>
          <rect x="5" y="1" width="1" height="2" fill="#FBB3BE"/>
          <rect x="2" y="4" width="1" height="1" fill="black"/>
          <rect x="5" y="4" width="1" height="1" fill="black"/>
          <rect width="2" height="1" transform="matrix(-1 0 0 1 2 5)" fill="#FF778F"/>
          <rect width="2" height="1" transform="matrix(-1 0 0 1 8 5)" fill="#FF778F"/>
          <rect x="3" y="6" width="2" height="1" fill="black"/>
          <rect y="6" width="1" height="1" fill="#FF6666" fill-opacity="0.1"/>
          <rect x="1" y="7" width="1" height="1" fill="#FF6666" fill-opacity="0.1"/>
        </g>
      </g>
    </svg>
  </g>
</svg>
</svg>